<svg width="33" height="32" viewBox="0 0 33 32" fill="none" xmlns="http://www.w3.org/2000/svg">
<ellipse cx="16.4182" cy="16" rx="16.1235" ry="16" fill="#FFAFB4"/>
<path d="M15.4526 21.7603C15.1572 21.7988 14.8617 21.8544 14.5663 21.8758C12.8733 21.9998 11.2365 21.7988 9.71173 21.0013C8.95476 20.6057 8.31641 20.0669 7.79882 19.3912C7.71255 19.2779 7.62629 19.2309 7.48611 19.2523C7.1238 19.3078 6.76149 19.3549 6.33448 19.4126C6.54151 19.7184 6.70542 19.9942 6.90382 20.2444C8.03173 21.6834 9.53705 22.4659 11.34 22.7204C12.2738 22.8529 13.2054 22.8807 14.1306 22.6498C14.9609 22.4424 15.6748 22.0255 16.3218 21.4824C16.3692 21.4439 16.4102 21.3733 16.4188 21.3135C16.7552 18.8417 18.0665 17.0136 20.1907 15.735C20.5509 15.5169 20.9498 15.3608 21.3251 15.1662C21.3855 15.1341 21.4545 15.0657 21.4674 15.0037C21.6443 14.1313 21.6335 13.2568 21.5149 12.378C21.5106 12.3502 21.4933 12.3224 21.4653 12.2562C20.9002 12.4443 20.3417 12.6303 19.7939 12.8142C20.374 12.4828 20.9973 12.2177 21.668 12.0017C21.9764 12.9404 22.1209 13.8854 22.1187 14.8797C23.2682 14.5504 24.4134 14.4221 25.6081 14.5098C25.537 16.1027 25.0647 17.546 24.1999 18.8781C24.8059 19.0427 25.3925 19.2031 25.9942 19.3677C25.8303 19.7954 25.606 20.1567 25.345 20.4945C24.0726 22.1538 22.3689 23.0283 20.2921 23.2335C19.1016 23.3511 17.9392 23.2079 16.7854 22.8872C16.8221 22.8872 16.8566 22.8829 16.8933 22.8872C17.7969 23.0154 18.7027 23.1052 19.6192 23.0219C21.42 22.8572 23.0245 22.2585 24.2753 20.9093C24.5686 20.5929 24.808 20.2251 25.0711 19.8787C25.0992 19.8424 25.1143 19.7932 25.1509 19.7184C24.7498 19.6329 24.3659 19.5559 23.9864 19.4639C23.8225 19.4233 23.7168 19.4575 23.596 19.5837C22.7592 20.4625 21.709 20.9949 20.566 21.3626C19.3238 21.7603 18.0557 22.0148 16.7444 22.0383C16.6776 22.0383 16.6 22.0768 16.546 22.1195C15.1874 23.163 13.6432 23.5008 11.9589 23.3169C11.079 23.2207 10.2229 23.0325 9.41412 22.6669C7.90018 21.9784 6.78952 20.888 6.07784 19.3955C6.05843 19.3528 6.04765 19.3057 6.02393 19.2287C6.52857 19.1625 7.01381 19.1004 7.52709 19.0342C6.66013 17.6764 6.22233 16.2054 6.15979 14.5868C8.13309 14.5611 9.99641 14.8626 11.685 15.8996C10.0848 15.1577 8.39189 14.9182 6.60621 14.9716C6.63856 15.1748 6.66013 15.3565 6.69463 15.534C6.9297 16.7185 7.34809 17.8304 8.04899 18.8289C8.14388 18.9636 8.24308 19.0192 8.41561 19.0149C9.77428 18.9786 11.1114 19.0962 12.3989 19.5623C13.5634 19.9856 14.5749 20.6378 15.3599 21.6042C15.3879 21.6385 15.4138 21.6727 15.4397 21.7069C15.4462 21.7154 15.444 21.7304 15.4483 21.7625L15.4526 21.7603ZM17.2081 20.5651L17.2814 20.5929C17.3612 20.5266 17.441 20.4582 17.5187 20.3919C18.0686 19.9301 18.6638 19.5345 19.3173 19.233C20.6458 18.6194 22.0346 18.5402 23.4558 18.7669C23.6176 18.7925 23.7017 18.7562 23.7836 18.6151C24.34 17.6807 24.6743 16.6715 24.8555 15.6067C24.8835 15.4335 24.9051 15.2603 24.9331 15.0785C24.8641 15.07 24.8274 15.0614 24.7908 15.0614C23.5356 15.0636 22.2977 15.1726 21.1073 15.6024C19.1793 16.2994 17.8918 17.5909 17.3785 19.588C17.2965 19.9065 17.2642 20.2401 17.2081 20.5651ZM14.7194 21.4567C14.0659 20.6442 13.2249 20.1075 12.2716 19.7333C11.0251 19.2458 9.72252 19.1432 8.38757 19.1881C8.5903 19.6157 9.5694 20.3598 10.4795 20.7575C11.8295 21.3477 13.2486 21.538 14.7194 21.4567ZM23.2359 19.3634C21.9699 19.2009 20.7601 19.2993 19.6106 19.8317C18.6919 20.2551 17.9198 20.8773 17.1801 21.5893C19.2763 21.9506 22.3711 20.8131 23.2359 19.3634Z" fill="black"/>
<path d="M15.4784 20.4411C14.8552 19.9579 14.3096 19.3999 13.8329 18.7776C13.1234 17.8561 12.5821 16.8533 12.3557 15.7051C12.2371 15.1043 12.2263 14.4992 12.3039 13.8919C12.3125 13.8256 12.291 13.7251 12.2435 13.6845C11.6289 13.1521 10.9517 12.7138 10.2228 12.3503C10.2012 12.3396 10.1753 12.3375 10.13 12.3268C9.87772 12.9426 9.75695 13.5797 9.78067 14.2426C9.76342 14.2426 9.74617 14.2426 9.72891 14.2426C9.7246 13.9154 9.69009 13.5862 9.72244 13.2633C9.75911 12.8955 9.85831 12.5342 9.92301 12.1707C9.95104 12.0082 10.0287 11.9975 10.171 12.0467C10.9064 12.2947 11.6095 12.6112 12.2759 13.0089C12.3341 13.0431 12.3923 13.073 12.4657 13.1136C12.5325 12.9276 12.5886 12.7566 12.6533 12.5919C13.296 10.9391 14.3786 9.60702 15.7329 8.47593C15.7717 8.44386 15.8839 8.4353 15.9162 8.46524C17.4388 9.82298 18.6249 11.3967 19.052 13.4301C19.1468 13.8855 19.1188 14.3645 19.1425 14.8349C19.1447 14.8926 19.1253 14.9525 19.108 15.0102C19.0541 13.6375 18.5257 12.4401 17.7623 11.3261C17.262 10.5949 16.6754 9.93844 16.0284 9.33334C15.9702 9.27988 15.9098 9.22643 15.8494 9.17297C15.638 9.3761 15.4288 9.56212 15.2412 9.76525C14.467 10.6013 13.8157 11.5164 13.3499 12.5598C12.6339 14.1635 12.6835 15.7564 13.3952 17.3451C13.8955 18.4591 14.5921 19.4426 15.4008 20.3535C15.4267 20.3834 15.4547 20.4134 15.4806 20.4433L15.4784 20.4411Z" fill="black"/>
</svg>
