<svg width="2499" height="2499" viewBox="0 0 2499 2499" fill="none" xmlns="http://www.w3.org/2000/svg">
<circle cx="1249.5" cy="1249.5" r="1249.5" fill="#2F0147"/>
<path d="M1193.94 1843.7C1164.17 1847.61 1134.41 1853.25 1104.64 1855.42C934.077 1868.01 769.162 1847.61 615.546 1766.64C539.282 1726.48 474.967 1671.77 422.82 1603.17C414.129 1591.67 405.438 1586.89 391.315 1589.06C354.812 1594.71 318.309 1599.48 275.288 1605.34C296.147 1636.39 312.66 1664.39 332.65 1689.79C446.286 1835.89 597.947 1915.34 779.592 1941.17C873.673 1954.63 967.538 1957.45 1060.75 1934.01C1144.4 1912.95 1216.32 1870.62 1281.51 1815.48C1286.29 1811.57 1290.41 1804.41 1291.28 1798.33C1325.18 1547.38 1457.28 1361.77 1671.3 1231.96C1707.59 1209.82 1747.79 1193.97 1785.59 1174.21C1791.68 1170.96 1798.63 1164.01 1799.93 1157.72C1817.75 1069.15 1816.66 980.358 1804.71 891.137C1804.28 888.315 1802.54 885.493 1799.71 878.763C1742.79 897.867 1686.51 916.753 1631.32 935.422C1689.77 901.774 1752.57 874.856 1820.14 852.93C1851.21 948.23 1865.77 1044.18 1865.55 1145.12C1981.36 1111.69 2096.73 1098.67 2217.11 1107.57C2209.94 1269.3 2162.35 1415.83 2075.22 1551.07C2136.28 1567.79 2195.38 1584.07 2256 1600.78C2239.49 1644.2 2216.89 1680.89 2190.6 1715.19C2062.4 1883.64 1890.75 1972.43 1681.52 1993.27C1561.58 2005.21 1444.46 1990.67 1328.22 1958.1C1331.91 1958.1 1335.39 1957.67 1339.08 1958.1C1430.12 1971.13 1521.38 1980.25 1613.72 1971.78C1795.15 1955.06 1956.81 1894.28 2082.83 1757.3C2112.38 1725.17 2136.5 1687.83 2163 1652.67C2165.83 1648.98 2167.35 1643.98 2171.04 1636.39C2130.63 1627.7 2091.95 1619.89 2053.71 1610.55C2037.2 1606.43 2026.55 1609.9 2014.39 1622.71C1930.08 1711.93 1824.27 1765.98 1709.11 1803.32C1583.96 1843.7 1456.2 1869.53 1324.09 1871.92C1317.36 1871.92 1309.53 1875.83 1304.1 1880.17C1167.22 1986.11 1011.65 2020.41 841.951 2001.74C753.301 1991.97 667.041 1972.87 585.562 1935.74C433.032 1865.84 321.134 1755.13 249.432 1603.61C247.476 1599.26 246.39 1594.49 244 1586.67C294.843 1579.94 343.731 1573.65 395.443 1566.92C308.097 1429.07 263.99 1279.72 257.689 1115.38C456.498 1112.78 644.227 1143.39 814.356 1248.67C653.136 1173.35 482.572 1149.03 302.665 1154.46C305.924 1175.08 308.097 1193.53 311.574 1211.55C335.257 1331.82 377.409 1444.7 448.025 1546.08C457.585 1559.75 467.58 1565.4 484.962 1564.96C621.847 1561.27 756.56 1573.21 886.276 1620.54C1003.61 1663.52 1105.51 1729.73 1184.6 1827.85C1187.42 1831.33 1190.03 1834.8 1192.64 1838.27C1193.29 1839.14 1193.07 1840.66 1193.51 1843.92L1193.94 1843.7ZM1370.81 1722.35L1378.19 1725.17C1386.23 1718.44 1394.27 1711.5 1402.09 1704.77C1457.5 1657.88 1517.47 1617.72 1583.31 1587.11C1717.15 1524.8 1857.08 1516.77 2000.26 1539.78C2016.56 1542.39 2025.03 1538.7 2033.29 1524.37C2089.35 1429.5 2123.03 1327.04 2141.28 1218.93C2144.1 1201.35 2146.27 1183.77 2149.1 1165.31C2142.15 1164.45 2138.45 1163.58 2134.76 1163.58C2008.3 1163.79 1883.58 1174.87 1763.65 1218.5C1569.4 1289.27 1439.68 1420.39 1387.97 1623.14C1379.72 1655.49 1376.46 1689.35 1370.81 1722.35ZM1120.07 1812.87C1054.23 1730.38 969.493 1675.89 873.456 1637.91C747.869 1588.41 616.633 1577.99 482.137 1582.55C502.562 1625.97 601.206 1701.51 692.898 1741.89C828.914 1801.8 971.883 1821.12 1120.07 1812.87ZM1978.1 1600.35C1850.56 1583.85 1728.66 1593.84 1612.86 1647.89C1520.29 1690.87 1442.51 1754.04 1367.98 1826.33C1579.18 1863.02 1890.97 1747.53 1978.1 1600.35Z" fill="#9C528B"/>
<path d="M1196.55 1709.76C1133.76 1660.7 1078.79 1604.04 1030.77 1540.87C959.283 1447.31 904.746 1345.49 881.932 1228.92C869.981 1167.92 868.895 1106.48 876.717 1044.83C877.586 1038.1 875.413 1027.9 870.633 1023.78C808.709 969.722 740.483 925.22 667.043 888.315C664.87 887.23 662.263 887.013 657.7 885.927C632.278 948.448 620.111 1013.14 622.501 1080.43C620.763 1080.43 619.025 1080.43 617.286 1080.43C616.852 1047.22 613.375 1013.79 616.634 981.01C620.328 943.672 630.323 906.985 636.841 870.08C639.666 853.582 647.488 852.497 661.828 857.49C735.92 882.671 806.753 914.8 873.892 955.177C879.759 958.651 885.625 961.69 893.013 965.814C899.748 946.928 905.398 929.561 911.916 912.846C976.665 745.04 1085.74 609.797 1222.19 494.96C1226.1 491.703 1237.4 490.835 1240.66 493.874C1394.06 631.722 1513.56 791.496 1556.58 997.943C1566.14 1044.18 1563.32 1092.81 1565.71 1140.57C1565.92 1146.43 1563.97 1152.51 1562.23 1158.37C1556.8 1019 1503.57 897.433 1426.65 784.332C1376.24 710.09 1317.14 643.445 1251.96 582.01C1246.09 576.583 1240.01 571.156 1233.92 565.729C1212.63 586.352 1191.55 605.238 1172.65 625.861C1094.65 710.741 1029.03 803.653 982.097 909.59C909.961 1072.4 914.958 1234.13 986.66 1395.42C1037.07 1508.52 1107.25 1608.38 1188.73 1700.86C1191.34 1703.9 1194.16 1706.94 1196.77 1709.98L1196.55 1709.76Z" fill="#FFAFB4"/>
</svg>
