<svg width="1920" height="408" viewBox="0 0 1920 408" fill="none" xmlns="http://www.w3.org/2000/svg">
<rect y="151" width="1920" height="257" fill="#FFAFB4"/>
<circle cx="960.5" cy="158.5" r="158.5" fill="#FFAFB4"/>
<path d="M954.589 211.439C951.562 211.836 948.536 212.41 945.509 212.631C928.166 213.911 911.398 211.836 895.778 203.603C888.024 199.52 881.484 193.957 876.182 186.982C875.299 185.812 874.415 185.327 872.979 185.548C869.267 186.121 865.556 186.607 861.181 187.203C863.302 190.359 864.981 193.207 867.014 195.789C878.568 210.644 893.989 218.723 912.458 221.35C922.024 222.718 931.568 223.005 941.046 220.621C949.552 218.48 956.864 214.176 963.492 208.57C963.978 208.172 964.398 207.444 964.486 206.826C967.933 181.31 981.365 162.437 1003.13 149.238C1006.82 146.986 1010.9 145.375 1014.75 143.366C1015.37 143.035 1016.07 142.329 1016.21 141.689C1018.02 132.683 1017.91 123.655 1016.69 114.584C1016.65 114.297 1016.47 114.01 1016.18 113.325C1010.39 115.268 1004.67 117.188 999.061 119.086C1005 115.665 1011.39 112.928 1018.26 110.699C1021.42 120.389 1022.9 130.145 1022.88 140.409C1034.65 137.01 1046.38 135.685 1058.62 136.59C1057.89 153.034 1053.06 167.934 1044.2 181.685C1050.4 183.384 1056.41 185.04 1062.58 186.74C1060.9 191.154 1058.6 194.884 1055.93 198.372C1042.89 215.5 1025.44 224.528 1004.16 226.647C991.97 227.861 980.062 226.382 968.242 223.071C968.618 223.071 968.971 223.027 969.347 223.071C978.604 224.396 987.882 225.323 997.272 224.462C1015.72 222.762 1032.16 216.582 1044.97 202.654C1047.97 199.387 1050.43 195.591 1053.12 192.015C1053.41 191.64 1053.56 191.132 1053.94 190.359C1049.83 189.477 1045.9 188.682 1042.01 187.733C1040.33 187.313 1039.25 187.667 1038.01 188.969C1029.44 198.041 1018.68 203.537 1006.97 207.333C994.245 211.439 981.255 214.066 967.822 214.308C967.138 214.308 966.342 214.706 965.79 215.147C951.872 225.919 936.053 229.406 918.799 227.508C909.785 226.515 901.014 224.572 892.73 220.798C877.221 213.69 865.843 202.433 858.552 187.026C858.353 186.585 858.243 186.099 858 185.305C863.17 184.621 868.141 183.98 873.399 183.296C864.517 169.28 860.033 154.094 859.392 137.385C879.607 137.12 898.695 140.232 915.993 150.937C899.6 143.278 882.258 140.806 863.965 141.358C864.296 143.455 864.517 145.331 864.871 147.163C867.279 159.391 871.565 170.869 878.745 181.177C879.717 182.568 880.733 183.142 882.501 183.098C896.419 182.722 910.116 183.936 923.306 188.748C935.236 193.119 945.597 199.851 953.639 209.828C953.926 210.181 954.191 210.534 954.456 210.887C954.523 210.975 954.501 211.13 954.545 211.461L954.589 211.439ZM972.572 199.1L973.323 199.387C974.141 198.703 974.958 197.997 975.754 197.312C981.387 192.545 987.485 188.461 994.179 185.349C1007.79 179.014 1022.02 178.197 1036.57 180.537C1038.23 180.802 1039.09 180.427 1039.93 178.97C1045.63 169.324 1049.06 158.906 1050.91 147.913C1051.2 146.126 1051.42 144.338 1051.71 142.461C1051 142.373 1050.63 142.285 1050.25 142.285C1037.39 142.307 1024.71 143.433 1012.52 147.869C992.765 155.065 979.576 168.397 974.318 189.013C973.478 192.302 973.147 195.745 972.572 199.1ZM947.077 208.305C940.383 199.917 931.767 194.377 922.002 190.514C909.233 185.481 895.889 184.422 882.214 184.885C884.29 189.3 894.32 196.981 903.643 201.087C917.473 207.179 932.01 209.143 947.077 208.305ZM1034.32 186.695C1021.35 185.018 1008.96 186.033 997.183 191.529C987.772 195.9 979.863 202.323 972.285 209.673C993.759 213.403 1025.46 201.661 1034.32 186.695Z" fill="black"/>
<path d="M954.854 197.82C948.469 192.832 942.88 187.071 937.997 180.648C930.729 171.134 925.184 160.782 922.864 148.929C921.649 142.727 921.538 136.48 922.334 130.211C922.422 129.527 922.201 128.49 921.715 128.07C915.419 122.574 908.482 118.049 901.014 114.297C900.793 114.186 900.528 114.164 900.064 114.054C897.48 120.411 896.242 126.989 896.485 133.831C896.309 133.831 896.132 133.831 895.955 133.831C895.911 130.454 895.558 127.055 895.889 123.722C896.264 119.925 897.281 116.195 897.944 112.443C898.231 110.765 899.026 110.655 900.484 111.163C908.018 113.723 915.22 116.99 922.047 121.095C922.643 121.448 923.24 121.757 923.991 122.177C924.676 120.256 925.25 118.491 925.913 116.791C932.496 99.7288 943.587 85.9774 957.461 74.3009C957.859 73.9698 959.007 73.8816 959.339 74.1906C974.936 88.2068 987.087 104.452 991.462 125.444C992.434 130.145 992.146 135.089 992.389 139.945C992.412 140.541 992.213 141.159 992.036 141.755C991.484 127.585 986.071 115.224 978.25 103.724C973.125 96.1751 967.115 89.3987 960.488 83.1521C959.891 82.6003 959.273 82.0485 958.654 81.4967C956.489 83.5936 954.346 85.5139 952.424 87.6108C944.493 96.2413 937.821 105.688 933.049 116.46C925.714 133.015 926.222 149.459 933.513 165.859C938.638 177.359 945.774 187.512 954.059 196.915C954.324 197.224 954.611 197.533 954.876 197.842L954.854 197.82Z" fill="black"/>
</svg>
